<svg enable-background="new 0 0 30.5 30.5" version="1.1" viewBox="0 0 30.5 30.5" xml:space="preserve" xmlns="http://www.w3.org/2000/svg">
  <path d="m30.5 15.3v-10.9c0-0.4 0-0.9-0.1-1.3-0.4-1.6-1.9-3.1-4.2-3.1h-21.9c-0.4 0-0.8 0-1.2 0.1-1.7 0.4-3.1 1.9-3.1 4.1v22.2c0 0.6 0.1 1.3 0.4 1.9 0.8 1.6 2.1 2.3 3.9 2.3h20.6 2c1.8-0.1 3.5-1.7 3.6-3.6v-11.7zm-3.4 10.5c0 0.7-0.6 1.3-1.3 1.3h-5.6v-11h3.1l0.4-3.9h-3.5v-2c0-1 0.1-1.6 1.6-1.6h1.9v-3.8h-3.1c-3.7 0-5.1 1.9-5.1 5.1v2.3h-2.3v3.9h2.3v10.9h-10.9c-0.7 0-1.3-0.6-1.3-1.3v-21.1c0-0.7 0.6-1.3 1.3-1.3h21.2c0.7 0 1.3 0.6 1.3 1.3v21.2z"/>
</svg>
