<svg enable-background="new 0 0 30.5 30.5" version="1.1" viewBox="0 0 30.5 30.5" xml:space="preserve" xmlns="http://www.w3.org/2000/svg">
  <path d="m30.5 15.3v11.6c0 1.9-1.7 3.5-3.6 3.6h-2-20.6c-1.8 0-3.1-0.7-3.9-2.3-0.2-0.5-0.4-1.2-0.4-1.8v-22.2c0-2.1 1.4-3.7 3.1-4 0.4-0.2 0.8-0.2 1.2-0.2h21.9c2.3 0 3.8 1.5 4.2 3.1 0.1 0.4 0.1 0.9 0.1 1.3v10.9zm-27.1-2.3v0.6 11.9c0 1.1 0.4 1.5 1.6 1.5h20.4c1.2 0 1.6-0.4 1.6-1.6v-11.8-0.5h-2.6c0.8 3 0.3 5.7-1.7 8.1-1.9 2.4-4.5 3.6-7.5 3.6-2.6 0-4.9-0.9-6.8-2.8-2.5-2.5-3.2-5.5-2.4-9h-2.6zm18 2.2c0-3.2-2.8-5.9-6.1-6-3.4 0-6.2 2.7-6.1 6 0 3.2 2.8 5.9 6.1 5.9 3.3 0.1 6.1-2.6 6.1-5.9zm2.5-11.8h-1.7c-0.9 0-1.4 0.6-1.4 1.5v3c0 0.8 0.5 1.5 1.4 1.5h3.4c0.8 0 1.4-0.6 1.4-1.4v-3.2c0-0.8-0.6-1.4-1.4-1.4h-1.7z"/>
</svg>
