<svg enable-background="new 0 0 30.5 30.5" version="1.1" viewBox="0 0 30.5 30.5" xml:space="preserve" xmlns="http://www.w3.org/2000/svg">
  <path d="m30.5 15.3v-10.9c0-0.4 0-0.9-0.1-1.3-0.4-1.6-1.9-3.1-4.2-3.1h-21.9c-0.4 0-0.8 0-1.2 0.1-1.7 0.4-3.1 1.9-3.1 4.1v22.2c0 0.6 0.1 1.3 0.4 1.9 0.8 1.6 2.1 2.3 3.9 2.3h20.6 2c1.8-0.1 3.5-1.7 3.6-3.6v-11.7zm-3.4 10.5c0 0.7-0.6 1.3-1.3 1.3h-21.2c-0.7 0-1.3-0.6-1.3-1.3v-21.2c0-0.7 0.6-1.3 1.3-1.3h21.2c0.7 0 1.3 0.6 1.3 1.3v21.2z"/>
  <path d="m23.8 18.7c-0.4-0.7-1-1.2-1.5-1.8l-0.9-0.9c-0.1-0.1-0.1-0.1 0-0.2 0.3-0.4 0.5-0.7 0.8-1.1l1.5-2.1c0.2-0.3 0.4-0.7 0.5-1.1s0.1-0.8-0.3-1.1c-0.2-0.2-0.5-0.3-0.8-0.3h-2.4-0.9c-0.4 0.1-0.7 0.3-0.9 0.7-0.2 0.5-0.5 1-0.7 1.4-0.3 0.6-0.6 1.1-1 1.6-0.1 0.1-0.2 0.3-0.4 0.4v-0.2-2.3-1c-0.1-0.5-0.3-0.8-0.7-1-0.3-0.2-0.7-0.3-1.1-0.3h-1.1c-0.4 0-0.9 0-1.3 0.1s-0.8 0.3-1.1 0.7c-0.1 0.2-0.2 0.4-0.1 0.6 0.1 0.3 0.3 0.5 0.6 0.5 0.2 0 0.4 0.1 0.4 0.4s0.1 0.6 0.1 0.9c0 0.5 0 0.9-0.1 1.3-0.1-0.2-0.3-0.4-0.4-0.6-0.6-0.9-1.1-1.8-1.5-2.7 0-0.1-0.1-0.2-0.1-0.2-0.3-0.4-0.7-0.6-1.1-0.6h-2.4-0.4c-0.4 0-0.7 0.3-0.8 0.7-0.1 0.3 0 0.5 0.1 0.8 0.6 1.2 1.3 2.4 2 3.6 0.7 1.1 1.4 2.2 2.3 3.2 0.6 0.7 1.4 1.3 2.3 1.6 0.5 0.2 1.1 0.3 1.7 0.3h2.2c0.4 0 0.7-0.2 0.9-0.7 0-0.1 0-0.2 0.1-0.3 0-0.2 0-0.4 0.1-0.5 0-0.2 0.1-0.2 0.2-0.1l0.7 0.7c0.3 0.3 0.6 0.7 1 1s0.9 0.5 1.4 0.5h2.6c0.3 0 0.7-0.1 0.9-0.3 0.4-0.3 0.6-0.6 0.5-1.1-0.6 0.1-0.8-0.2-0.9-0.5z"/>
</svg>
